<svg width="24" height="24" viewBox="0 0 24 24" fill="none" xmlns="http://www.w3.org/2000/svg">
<path d="M5 8.23077C5 14.1783 9.82174 19 15.7692 19H17.3846C17.813 19 18.2239 18.8298 18.5269 18.5269C18.8298 18.2239 19 17.813 19 17.3846V16.3996C19 16.0291 18.748 15.7061 18.3883 15.6163L15.2128 14.8223C14.8969 14.7433 14.5652 14.8617 14.3707 15.1216L13.6743 16.0499C13.4718 16.3199 13.1222 16.4391 12.8055 16.3228C11.6302 15.8907 10.5628 15.2082 9.67728 14.3227C8.79178 13.4372 8.10935 12.3698 7.67723 11.1945C7.56092 10.8778 7.6801 10.5282 7.95005 10.3257L8.87836 9.62933C9.13897 9.43477 9.25672 9.10236 9.17774 8.78718L8.38369 5.61169C8.34 5.43701 8.23918 5.28194 8.09727 5.17111C7.95535 5.06029 7.78047 5.00006 7.60041 5H6.61538C6.18696 5 5.77608 5.17019 5.47314 5.47314C5.17019 5.77608 5 6.18696 5 6.61538V8.23077Z" fill="white" stroke="white" stroke-width="1.07692" stroke-linecap="round" stroke-linejoin="round"/>
</svg>
