<svg width="24" height="24" viewBox="0 0 24 24" fill="none" xmlns="http://www.w3.org/2000/svg">
<path d="M14.8575 17.082C16.7207 16.8614 18.5513 16.4217 20.3115 15.772C18.8209 14.1208 17.9972 11.9745 18.0005 9.74998V9.04998V8.99998C18.0005 7.40869 17.3683 5.88256 16.2431 4.75734C15.1179 3.63213 13.5918 2.99998 12.0005 2.99998C10.4092 2.99998 8.88305 3.63213 7.75784 4.75734C6.63262 5.88256 6.00048 7.40869 6.00048 8.99998V9.74998C6.00349 11.9746 5.17946 14.1209 3.68848 15.772C5.42148 16.412 7.24848 16.857 9.14348 17.082M14.8575 17.082C12.9595 17.3071 11.0415 17.3071 9.14348 17.082Z" stroke="#2070F4" stroke-width="1.22222" stroke-linecap="round" stroke-linejoin="round"/>
<path d="M18.708 2.99998C19.8422 4.26443 20.594 5.82495 20.876 7.49998" stroke="#2070F4" stroke-width="1.22222" stroke-linecap="round" stroke-linejoin="round"/>
<path d="M5.29199 2.99998C4.15779 4.26443 3.40596 5.82495 3.12399 7.49998" stroke="#2070F4" stroke-width="1.22222" stroke-linecap="round" stroke-linejoin="round"/>
<path d="M9.143 17.2509C11.041 17.476 12.959 17.476 14.857 17.2509C15.0011 17.7007 15.0369 18.1782 14.9616 18.6446C14.8862 19.1109 14.7018 19.5528 14.4234 19.9344C14.1449 20.316 13.7803 20.6264 13.3592 20.8405C12.9381 21.0545 12.4724 21.166 12 21.166C11.5276 21.166 11.0619 21.0545 10.6408 20.8405C10.2197 20.6264 9.85507 20.316 9.57662 19.9344C9.29817 19.5528 9.11376 19.1109 9.03841 18.6446C8.96306 18.1782 8.9989 17.7007 9.143 17.2509Z" stroke="#2070F4" stroke-width="1.22222" stroke-linecap="round" stroke-linejoin="round"/>
</svg>
