<svg width="40" height="40" viewBox="0 0 40 40" fill="none" xmlns="http://www.w3.org/2000/svg">
<path d="M4.84933 9.40746C7.3034 7.28553 10.5024 6.00195 14.0013 6.00195C21.7329 6.00195 28.0007 12.2697 28.0007 20.0013C28.0007 22.9917 27.063 25.7632 25.4657 28.0378L21.001 20.0013H25.2008C25.2008 13.816 20.1866 8.80182 14.0013 8.80182C10.9912 8.80182 8.25845 9.98935 6.24599 11.9215L4.84933 9.40746ZM23.1532 30.5952C20.6992 32.7171 17.5002 34.0007 14.0013 34.0007C6.26967 34.0007 0.00195312 27.7329 0.00195312 20.0013C0.00195312 17.0108 0.939616 14.2394 2.53696 11.9649L7.00163 20.0013H2.80182C2.80182 26.1866 7.816 31.2008 14.0013 31.2008C17.0114 31.2008 19.7441 30.0132 21.7567 28.0812L23.1532 30.5952Z" fill="#2070F4"/>
</svg>
