<svg width="144" height="48" viewBox="0 0 144 48" fill="none" xmlns="http://www.w3.org/2000/svg">
<path d="M75 19L80 24M80 24L75 29M80 24H56" stroke="#5293FF" stroke-width="2.55" stroke-linecap="round" stroke-linejoin="round"/>
<path d="M21.75 8.25H18.375C17.4799 8.25 16.6215 8.60558 15.9885 9.23851C15.3556 9.87145 15 10.7299 15 11.625V36.375C15 37.2701 15.3556 38.1285 15.9885 38.7615C16.6215 39.3944 17.4799 39.75 18.375 39.75H29.625C30.5201 39.75 31.3785 39.3944 32.0115 38.7615C32.6444 38.1285 33 37.2701 33 36.375V11.625C33 10.7299 32.6444 9.87145 32.0115 9.23851C31.3785 8.60558 30.5201 8.25 29.625 8.25H26.25M21.75 8.25V10.5H26.25V8.25M21.75 8.25H26.25M21.75 36.375H26.25" stroke="#5293FF" stroke-width="2.25" stroke-linecap="round" stroke-linejoin="round"/>
<path d="M135.272 24C135.272 22.9874 134.87 22.0162 134.154 21.3001C133.438 20.5841 132.466 20.1818 131.454 20.1818H125.09C125.09 21.532 124.554 22.8269 123.599 23.7816C122.644 24.7364 121.349 25.2727 119.999 25.2727C118.649 25.2727 117.354 24.7364 116.399 23.7816C115.445 22.8269 114.908 21.532 114.908 20.1818H108.545C107.532 20.1818 106.561 20.5841 105.845 21.3001C105.129 22.0162 104.727 22.9874 104.727 24M135.272 24V34.1818C135.272 35.1945 134.87 36.1656 134.154 36.8817C133.438 37.5977 132.466 38 131.454 38H108.545C107.532 38 106.561 37.5977 105.845 36.8817C105.129 36.1656 104.727 35.1945 104.727 34.1818V24M135.272 24V18.9091M104.727 24V18.9091M135.272 18.9091C135.272 17.8964 134.87 16.9253 134.154 16.2092C133.438 15.4932 132.466 15.0909 131.454 15.0909H108.545C107.532 15.0909 106.561 15.4932 105.845 16.2092C105.129 16.9253 104.727 17.8964 104.727 18.9091M135.272 18.9091V13.8182C135.272 12.8055 134.87 11.8344 134.154 11.1183C133.438 10.4023 132.466 10 131.454 10H108.545C107.532 10 106.561 10.4023 105.845 11.1183C105.129 11.8344 104.727 12.8055 104.727 13.8182V18.9091" stroke="#5293FF" stroke-width="2.54545" stroke-linecap="round" stroke-linejoin="round"/>
</svg>
