<svg width="24" height="24" viewBox="0 0 24 24" fill="none" xmlns="http://www.w3.org/2000/svg">
<g clip-path="url(#clip0_1_15269)">
<path d="M3 5H21C21.2652 5 21.5196 5.10536 21.7071 5.29289C21.8946 5.48043 22 5.73478 22 6V19C22 19.2652 21.8946 19.5196 21.7071 19.7071C21.5196 19.8946 21.2652 20 21 20H3C2.73478 20 2.48043 19.8946 2.29289 19.7071C2.10536 19.5196 2 19.2652 2 19V6C2 5.73478 2.10536 5.48043 2.29289 5.29289C2.48043 5.10536 2.73478 5 3 5ZM12.06 13.683L5.648 8.238L4.353 9.762L12.073 16.317L19.654 9.757L18.346 8.244L12.06 13.683Z" fill="white"/>
</g>
<defs>
<clipPath id="clip0_1_15269">
<rect width="24" height="24" fill="white"/>
</clipPath>
</defs>
</svg>
