<svg width="20" height="20" viewBox="0 0 20 20" fill="none" xmlns="http://www.w3.org/2000/svg">
<g id="Frame">
<path id="Vector" d="M17 13.4378V16.1881C17 16.5964 16.6843 16.9352 16.2771 16.964C15.9369 16.988 15.6593 17 15.4444 17C8.57153 17 3 11.4285 3 4.55556C3 4.34066 3.01202 4.06312 3.03605 3.72294C3.06484 3.31568 3.40362 3 3.81189 3H6.5623C6.76194 3 6.92915 3.15122 6.94919 3.34984C6.96719 3.52817 6.98392 3.67133 6.99939 3.77935C7.15672 4.87812 7.47808 5.92395 7.93788 6.89125C8.01168 7.04651 7.96355 7.23235 7.82366 7.33227L6.14498 8.5314C7.16696 10.9186 9.08137 12.8331 11.4686 13.8551L12.6655 12.1793C12.7667 12.0377 12.9548 11.989 13.1119 12.0636C14.0791 12.523 15.1249 12.844 16.2235 13.001C16.3308 13.0164 16.4731 13.0329 16.6502 13.0508C16.8488 13.0709 17 13.2381 17 13.4378Z" fill="#FEFFFF"/>
</g>
</svg>
