<svg width="40" height="40" viewBox="0 0 40 40" fill="none" xmlns="http://www.w3.org/2000/svg">
<path d="M36.364 20C36.364 18.915 35.933 17.8745 35.1658 17.1073C34.3986 16.3401 33.3581 15.9091 32.2731 15.9091H25.4549C25.4549 17.3557 24.8802 18.7431 23.8573 19.766C22.8344 20.789 21.447 21.3636 20.0004 21.3636C18.5537 21.3636 17.1663 20.789 16.1434 19.766C15.1205 18.7431 14.5458 17.3557 14.5458 15.9091H7.72763C6.64265 15.9091 5.60211 16.3401 4.83492 17.1073C4.06772 17.8745 3.63672 18.915 3.63672 20M36.364 20V30.9091C36.364 31.9941 35.933 33.0346 35.1658 33.8018C34.3986 34.569 33.3581 35 32.2731 35H7.72763C6.64265 35 5.60211 34.569 4.83492 33.8018C4.06772 33.0346 3.63672 31.9941 3.63672 30.9091V20M36.364 20V14.5455ZM3.63672 20V14.5455ZM36.364 14.5455C36.364 13.4605 35.933 12.4199 35.1658 11.6527C34.3986 10.8856 33.3581 10.4545 32.2731 10.4545H7.72763C6.64265 10.4545 5.60211 10.8856 4.83492 11.6527C4.06772 12.4199 3.63672 13.4605 3.63672 14.5455M36.364 14.5455V9.09091C36.364 8.00593 35.933 6.96539 35.1658 6.1982C34.3986 5.43101 33.3581 5 32.2731 5H7.72763C6.64265 5 5.60211 5.43101 4.83492 6.1982C4.06772 6.96539 3.63672 8.00593 3.63672 9.09091V14.5455" fill="#2070F4"/>
<path d="M36.364 20C36.364 18.915 35.933 17.8745 35.1658 17.1073C34.3986 16.3401 33.3581 15.9091 32.2731 15.9091H25.4549C25.4549 17.3557 24.8802 18.7431 23.8573 19.766C22.8344 20.789 21.447 21.3636 20.0004 21.3636C18.5537 21.3636 17.1663 20.789 16.1434 19.766C15.1205 18.7431 14.5458 17.3557 14.5458 15.9091H7.72763C6.64265 15.9091 5.60211 16.3401 4.83492 17.1073C4.06772 17.8745 3.63672 18.915 3.63672 20M36.364 20V30.9091C36.364 31.9941 35.933 33.0346 35.1658 33.8018C34.3986 34.569 33.3581 35 32.2731 35H7.72763C6.64265 35 5.60211 34.569 4.83492 33.8018C4.06772 33.0346 3.63672 31.9941 3.63672 30.9091V20M36.364 20V14.5455M3.63672 20V14.5455M36.364 14.5455C36.364 13.4605 35.933 12.4199 35.1658 11.6527C34.3986 10.8856 33.3581 10.4545 32.2731 10.4545H7.72763C6.64265 10.4545 5.60211 10.8856 4.83492 11.6527C4.06772 12.4199 3.63672 13.4605 3.63672 14.5455M36.364 14.5455V9.09091C36.364 8.00593 35.933 6.96539 35.1658 6.1982C34.3986 5.43101 33.3581 5 32.2731 5H7.72763C6.64265 5 5.60211 5.43101 4.83492 6.1982C4.06772 6.96539 3.63672 8.00593 3.63672 9.09091V14.5455" stroke="#171830" stroke-width="2.72727" stroke-linecap="round" stroke-linejoin="round"/>
</svg>
